<?xml version="1.0" standalone="no"?>
<!DOCTYPE svg PUBLIC "-//W3C//DTD SVG 20010904//EN"
 "http://www.w3.org/TR/2001/REC-SVG-20010904/DTD/svg10.dtd">
<svg version="1.0" xmlns="http://www.w3.org/2000/svg"
 width="988.000000pt" height="1280.000000pt" viewBox="0 0 988.000000 1280.000000"
 preserveAspectRatio="xMidYMid meet">
<metadata>
Created by potrace 1.15, written by Peter Selinger 2001-2017
</metadata>
<g transform="translate(0.000000,1280.000000) scale(0.100000,-0.100000)"
fill="#000000" stroke="none">
<path d="M7535 12773 c-209 -14 -386 -27 -393 -29 -9 -3 -6 -17 13 -54 50 -99
52 -218 5 -309 -31 -62 -98 -129 -158 -158 -50 -24 -69 -28 -147 -28 -76 0
-99 4 -145 26 -69 33 -134 98 -169 169 -22 47 -26 68 -26 140 1 52 7 102 17
127 8 23 14 44 12 45 -4 5 -537 -32 -542 -37 -2 -2 9 -30 24 -62 25 -50 29
-70 29 -143 0 -71 -4 -94 -26 -141 -85 -182 -287 -255 -465 -168 -62 30 -148
127 -170 191 -22 67 -22 168 0 231 10 27 16 51 13 53 -4 5 -524 -25 -544 -31
-9 -3 -3 -25 19 -71 51 -109 42 -233 -25 -331 -95 -138 -273 -190 -422 -124
-66 29 -148 111 -176 175 -32 73 -36 175 -12 249 11 32 17 59 14 60 -9 5 -533
-32 -538 -37 -3 -3 8 -31 23 -63 25 -50 29 -70 29 -143 0 -71 -4 -94 -27 -143
-76 -161 -258 -238 -428 -182 -77 25 -179 127 -206 205 -24 72 -24 171 0 233
10 27 16 51 13 53 -5 6 -513 -24 -535 -32 -10 -3 -7 -15 12 -46 96 -166 26
-383 -152 -470 -59 -29 -76 -33 -152 -33 -73 0 -93 4 -141 28 -67 32 -142 109
-171 175 -31 69 -34 163 -9 242 11 35 19 65 18 66 -4 3 -538 -34 -542 -38 -2
-2 10 -32 27 -67 28 -54 32 -73 31 -140 0 -62 -6 -90 -26 -134 -32 -71 -92
-136 -159 -172 -74 -40 -196 -47 -280 -15 -164 62 -256 257 -200 425 11 33 19
62 16 64 -3 4 -214 -9 -771 -46 -76 -5 -93 -9 -93 -22 1 -67 39 -563 43 -567
3 -3 29 10 59 30 67 44 131 60 216 54 84 -6 149 -36 211 -97 74 -73 96 -127
96 -241 0 -81 -4 -103 -25 -145 -36 -75 -114 -147 -185 -174 -86 -32 -197 -27
-278 13 -32 15 -60 26 -62 25 -3 -5 36 -602 40 -607 2 -2 27 12 57 32 29 19
82 43 117 52 152 38 320 -45 389 -194 38 -81 38 -193 0 -274 -35 -75 -98 -141
-167 -175 -49 -24 -68 -28 -146 -28 -81 0 -96 3 -152 32 l-63 31 0 -41 c1 -77
37 -577 42 -582 3 -3 16 4 30 15 93 72 207 95 317 61 60 -18 80 -31 135 -84
84 -82 110 -146 104 -262 -3 -57 -11 -93 -27 -124 -34 -65 -106 -137 -170
-168 -48 -24 -68 -28 -142 -28 -77 0 -92 3 -149 33 -35 18 -64 31 -66 30 -3
-4 37 -602 41 -606 1 -2 27 12 56 31 71 45 116 59 191 58 108 0 184 -36 261
-121 58 -64 82 -132 81 -226 -2 -126 -78 -245 -193 -301 -49 -24 -68 -28 -147
-28 -82 0 -96 3 -152 32 l-62 32 0 -27 c0 -45 32 -566 36 -579 2 -8 22 0 55
22 101 69 229 83 332 37 65 -29 150 -112 178 -175 19 -42 24 -69 24 -142 0
-84 -2 -95 -34 -153 -19 -34 -52 -79 -74 -98 -103 -93 -247 -114 -374 -54 -36
17 -68 29 -70 27 -4 -5 34 -567 39 -572 2 -2 26 12 54 30 53 36 144 65 200 65
18 0 61 -9 96 -20 78 -24 166 -98 206 -174 24 -46 27 -62 27 -151 0 -86 -3
-106 -23 -144 -36 -66 -108 -137 -171 -168 -48 -24 -68 -28 -141 -28 -76 0
-92 4 -149 33 -35 17 -65 31 -66 30 -6 -7 40 -638 46 -638 4 0 31 15 59 34
138 91 320 68 434 -54 69 -74 90 -127 91 -230 0 -72 -4 -94 -27 -143 -82 -174
-283 -248 -455 -168 -36 17 -68 30 -70 27 -5 -5 35 -607 41 -613 2 -3 20 7 38
21 99 75 233 93 340 44 72 -33 142 -98 176 -163 24 -44 27 -61 27 -150 0 -84
-4 -107 -23 -146 -36 -74 -87 -125 -160 -161 -60 -30 -76 -33 -153 -33 -77 0
-92 3 -147 31 -33 18 -62 30 -64 29 -2 -2 4 -118 14 -257 9 -139 17 -274 17
-300 1 -55 10 -59 52 -24 16 14 55 34 86 46 77 29 196 25 262 -9 65 -34 137
-106 168 -170 24 -48 28 -68 28 -141 0 -72 -4 -93 -27 -141 -34 -68 -96 -132
-163 -167 -45 -24 -61 -27 -150 -27 -90 0 -105 3 -153 28 -30 16 -56 26 -59
23 -6 -6 31 -574 38 -580 5 -6 869 51 875 57 2 2 -5 16 -16 30 -70 89 -86 235
-38 339 37 79 96 140 171 174 122 56 268 34 371 -57 112 -97 145 -258 82 -396
l-25 -53 42 0 c78 0 552 33 559 39 4 3 -8 29 -26 56 -45 67 -56 106 -56 186 0
99 29 170 99 240 70 70 141 99 241 99 99 0 167 -28 239 -99 72 -70 101 -139
101 -241 0 -66 -1 -70 -23 -70 -43 0 -65 -53 -32 -80 11 -9 12 -17 4 -32 -6
-11 -8 -22 -6 -25 3 -2 71 0 152 6 105 7 179 7 254 -1 196 -20 478 1 709 51
53 12 190 26 347 36 143 9 262 19 264 21 2 2 -11 24 -28 50 -17 26 -31 50 -31
53 0 3 75 36 168 73 92 37 234 96 315 132 81 36 150 66 152 66 1 0 9 -23 15
-51 17 -70 8 -177 -19 -229 -32 -62 -31 -64 59 -57 78 6 81 6 90 -17 7 -19 14
-22 35 -19 19 4 24 10 20 23 -7 21 18 30 86 30 38 0 48 -4 52 -20 3 -14 14
-20 32 -20 24 0 26 3 21 25 -6 25 -6 25 66 25 l73 -1 -80 -33 c-44 -19 -108
-48 -143 -65 -34 -17 -68 -31 -75 -31 -7 0 -22 -7 -34 -15 -48 -33 -453 -207
-683 -293 -179 -67 -398 -134 -540 -166 -271 -60 -485 -69 -830 -36 -259 25
-267 25 -280 0 -14 -25 -5 -56 17 -65 18 -6 351 -39 513 -50 320 -22 764 73
1270 272 164 65 510 214 646 279 39 19 74 34 79 34 5 0 46 18 91 40 45 23 94
43 110 46 16 3 36 11 44 19 8 7 42 22 75 33 33 11 78 29 100 40 22 11 83 34
135 51 52 18 104 36 115 42 11 5 35 13 53 18 37 11 39 4 17 -39 l-16 -30 84 0
c71 0 87 -3 102 -20 10 -11 31 -20 47 -20 32 0 35 6 11 32 -15 17 -14 18 18
18 19 0 88 5 154 10 118 9 120 9 140 -13 16 -18 27 -22 53 -17 l32 5 -25 38
c-30 43 -55 109 -55 142 0 20 7 23 83 33 78 11 279 5 452 -14 87 -10 89 -12
61 -67 -13 -26 -19 -50 -14 -53 9 -6 178 2 268 12 l45 4 -30 -25 -30 -25 110
7 c61 4 120 7 133 8 16 0 22 6 22 22 0 19 7 22 68 27 37 4 93 9 125 12 61 5
67 1 40 -28 -15 -17 -14 -18 21 -18 29 0 39 5 48 24 6 14 20 26 32 28 16 2 21
10 22 33 0 17 7 44 16 60 18 34 21 51 19 113 -1 50 -17 48 -27 -4 -12 -66 -21
-19 -32 175 -7 107 -13 196 -16 198 -2 2 -24 -9 -50 -25 -93 -59 -220 -66
-320 -17 -65 32 -96 65 -123 130 -48 114 -37 229 32 332 32 48 35 58 26 83
-12 34 2 49 74 81 72 32 190 32 263 -1 39 -17 56 -20 61 -12 5 8 14 -2 27 -25
l19 -38 3 48 c3 40 -2 57 -26 95 -27 43 -30 58 -37 167 l-7 120 24 -22 23 -22
-1 35 c-1 22 -10 44 -26 62 -20 21 -27 41 -30 84 -3 32 -7 61 -11 64 -3 3 -19
-3 -35 -15 -85 -60 -205 -81 -303 -53 -56 17 -132 73 -176 130 -35 47 -41 65
-19 56 10 -4 14 2 12 21 -1 18 -8 28 -24 32 -28 7 -36 37 -30 121 9 120 84
227 198 281 46 22 69 26 140 26 72 0 93 -4 141 -27 31 -16 59 -28 64 -28 4 0
5 16 3 36 -4 33 -2 35 19 29 19 -4 23 -2 23 20 0 17 -8 29 -25 37 -18 8 -25
19 -25 38 0 15 -3 49 -7 75 -6 46 -5 47 15 36 30 -16 33 -14 29 16 -3 23 -11
31 -46 50 -2 1 -7 55 -12 119 -5 64 -11 119 -14 122 -2 3 -33 -10 -67 -29 -59
-32 -69 -34 -158 -34 -115 1 -167 21 -238 92 -67 67 -94 130 -100 228 -6 109
19 176 97 254 76 79 144 105 256 99 52 -3 97 -12 128 -26 l47 -21 0 40 c0 58
-29 508 -36 547 -3 17 -7 32 -10 32 -3 0 -25 -11 -49 -25 -59 -35 -99 -45
-175 -46 -93 -1 -168 30 -232 94 -75 75 -103 142 -103 247 0 71 4 94 26 141
33 69 91 129 161 166 47 25 64 28 148 28 77 0 104 -4 142 -22 26 -12 49 -19
51 -15 4 7 -15 328 -28 468 l-6 71 -71 -36 c-66 -34 -77 -36 -162 -36 -79 0
-98 4 -143 28 -68 35 -129 98 -162 167 -22 47 -26 68 -26 145 0 78 4 97 28
146 83 170 294 242 459 158 l38 -19 0 47 c0 64 -30 525 -35 541 -3 9 -17 3
-45 -17 -64 -46 -129 -64 -218 -59 -94 4 -152 30 -218 96 -72 72 -99 139 -99
242 0 71 4 94 27 142 32 69 97 136 163 169 42 20 64 24 145 24 83 0 102 -3
150 -27 30 -15 56 -25 58 -23 2 2 -3 113 -12 247 -23 345 -25 360 -55 324 -6
-8 -35 -24 -64 -37 -73 -32 -202 -33 -269 -2 -66 30 -143 105 -175 172 -24 49
-28 68 -28 146 0 78 4 97 28 147 36 74 119 150 189 174 74 26 177 23 251 -5
32 -13 60 -21 61 -19 4 4 -34 572 -39 576 -1 2 -27 -10 -56 -26 -139 -77 -285
-61 -399 44 -66 62 -97 116 -110 198 -24 147 52 293 187 362 52 26 68 29 148
29 71 -1 100 -5 139 -23 27 -12 51 -20 53 -18 5 5 -24 481 -33 537 l-5 36 -71
-36 c-65 -33 -77 -36 -157 -36 -104 0 -156 21 -231 91 -99 93 -132 218 -92
350 58 190 266 288 455 215 32 -13 60 -21 62 -19 1 1 -5 122 -16 268 -10 146
-18 273 -19 283 0 21 26 21 -465 -10z m600 -10036 c5 -40 4 -58 -3 -52 -19 20
-32 80 -31 144 l1 66 13 -48 c7 -26 16 -76 20 -110z m-568 -277 c4 -15 14 -20
36 -20 17 0 57 -7 89 -16 48 -14 67 -26 106 -69 31 -33 54 -71 65 -105 18 -56
22 -90 10 -90 -5 0 -71 7 -148 15 -152 16 -286 18 -380 6 -74 -10 -89 -4 -92
34 -1 17 -5 44 -8 62 -6 25 -2 39 20 67 33 44 44 45 52 6 l6 -30 37 34 c20 18
56 42 79 52 38 16 41 21 36 46 -6 28 -6 28 40 28 38 0 48 -4 52 -20z m-1157
-75 c7 -27 50 -29 50 -2 0 16 5 18 33 12 66 -15 164 -85 150 -108 -3 -6 -1 -7
4 -4 25 15 82 -92 90 -168 4 -33 1 -55 -6 -59 -6 -4 -48 -18 -93 -31 -46 -14
-92 -29 -103 -35 -61 -29 -226 -86 -248 -86 -14 1 -25 -3 -24 -8 2 -8 -85 -46
-105 -46 -5 0 -8 7 -8 15 0 9 -11 20 -25 25 -14 5 -25 11 -25 14 0 2 -3 12 -7
22 -5 13 -3 16 10 11 20 -8 17 30 -5 62 -15 21 -15 26 7 70 26 50 19 62 -20
37 -14 -9 -25 -12 -25 -7 0 25 14 41 36 41 17 0 31 12 50 43 15 23 31 44 35
45 15 6 10 49 -6 62 -12 10 -13 16 -3 27 32 39 164 95 213 90 10 -1 22 -11 25
-22z m-1005 -88 c28 -14 66 -39 85 -55 l34 -29 -49 -22 c-130 -59 -386 -166
-466 -196 l-89 -33 0 49 c0 130 101 262 233 305 67 22 191 13 252 -19z m-1148
-57 c139 -61 224 -200 210 -340 -4 -31 -9 -64 -12 -73 -13 -33 -328 -87 -514
-87 l-109 0 -23 53 c-34 76 -33 192 2 267 47 100 125 168 228 197 60 17 159 9
218 -17z m1893 0 c0 -10 -10 -26 -22 -34 -42 -30 -49 -19 -18 32 21 34 40 35
40 2z"/>
<path d="M6158 2123 c7 -3 16 -2 19 1 4 3 -2 6 -13 5 -11 0 -14 -3 -6 -6z"/>
<path d="M9130 4216 c0 -2 8 -10 18 -17 15 -13 16 -12 3 4 -13 16 -21 21 -21
13z"/>
<path d="M9105 3990 c38 -38 72 -70 74 -70 3 0 -26 32 -64 70 -38 39 -72 70
-74 70 -3 0 26 -31 64 -70z"/>
<path d="M9005 4030 c10 -11 20 -20 23 -20 3 0 -3 9 -13 20 -10 11 -20 20 -23
20 -3 0 3 -9 13 -20z"/>
<path d="M9310 4036 c0 -2 8 -10 18 -17 15 -13 16 -12 3 4 -13 16 -21 21 -21
13z"/>
<path d="M9300 3986 c0 -2 8 -10 18 -17 15 -13 16 -12 3 4 -13 16 -21 21 -21
13z"/>
<path d="M9140 3896 c0 -2 8 -10 18 -17 15 -13 16 -12 3 4 -13 16 -21 21 -21
13z"/>
<path d="M9021 2774 c0 -11 3 -14 6 -6 3 7 2 16 -1 19 -3 4 -6 -2 -5 -13z"/>
<path d="M9438 2783 c7 -3 16 -2 19 1 4 3 -2 6 -13 5 -11 0 -14 -3 -6 -6z"/>
<path d="M8821 2744 c0 -11 3 -14 6 -6 3 7 2 16 -1 19 -3 4 -6 -2 -5 -13z"/>
<path d="M9503 2753 c9 -2 23 -2 30 0 6 3 -1 5 -18 5 -16 0 -22 -2 -12 -5z"/>
<path d="M9681 2744 c0 -11 3 -14 6 -6 3 7 2 16 -1 19 -3 4 -6 -2 -5 -13z"/>
<path d="M9318 2733 c7 -3 16 -2 19 1 4 3 -2 6 -13 5 -11 0 -14 -3 -6 -6z"/>
<path d="M9272 2670 c0 -14 2 -19 5 -12 2 6 2 18 0 25 -3 6 -5 1 -5 -13z"/>
<path d="M9298 2683 c7 -3 16 -2 19 1 4 3 -2 6 -13 5 -11 0 -14 -3 -6 -6z"/>
<path d="M8793 2645 c0 -22 2 -30 4 -17 2 12 2 30 0 40 -3 9 -5 -1 -4 -23z"/>
<path d="M8301 2584 c0 -11 3 -14 6 -6 3 7 2 16 -1 19 -3 4 -6 -2 -5 -13z"/>
<path d="M9288 2563 c12 -2 30 -2 40 0 9 3 -1 5 -23 4 -22 0 -30 -2 -17 -4z"/>
<path d="M8792 2530 c0 -14 2 -19 5 -12 2 6 2 18 0 25 -3 6 -5 1 -5 -13z"/>
<path d="M8992 2500 c0 -14 2 -19 5 -12 2 6 2 18 0 25 -3 6 -5 1 -5 -13z"/>
<path d="M9270 2465 c0 -14 2 -25 4 -25 2 0 6 11 8 25 3 14 1 25 -3 25 -5 0
-9 -11 -9 -25z"/>
<path d="M9682 2455 c0 -16 2 -22 5 -12 2 9 2 23 0 30 -3 6 -5 -1 -5 -18z"/>
<path d="M9458 2463 c7 -3 16 -2 19 1 4 3 -2 6 -13 5 -11 0 -14 -3 -6 -6z"/>
<path d="M9861 2444 c0 -11 3 -14 6 -6 3 7 2 16 -1 19 -3 4 -6 -2 -5 -13z"/>
<path d="M9410 2406 c0 -2 8 -10 18 -17 15 -13 16 -12 3 4 -13 16 -21 21 -21
13z"/>
<path d="M9811 2334 c0 -11 3 -14 6 -6 3 7 2 16 -1 19 -3 4 -6 -2 -5 -13z"/>
<path d="M9298 2303 c7 -3 16 -2 19 1 4 3 -2 6 -13 5 -11 0 -14 -3 -6 -6z"/>
<path d="M9339 2263 c-13 -16 -12 -17 4 -4 16 13 21 21 13 21 -2 0 -10 -8 -17
-17z"/>
<path d="M9319 2163 c-13 -16 -12 -17 4 -4 16 13 21 21 13 21 -2 0 -10 -8 -17
-17z"/>
<path d="M9199 2093 c-13 -16 -12 -17 4 -4 16 13 21 21 13 21 -2 0 -10 -8 -17
-17z"/>
<path d="M9264 1898 c-4 -7 -4 -10 1 -6 4 4 15 2 24 -5 14 -11 14 -10 2 6 -16
20 -18 21 -27 5z"/>
<path d="M8489 1843 l-34 -38 38 34 c34 33 42 41 34 41 -2 0 -19 -17 -38 -37z"/>
<path d="M8494 1788 l-19 -23 23 19 c12 11 22 21 22 23 0 8 -8 2 -26 -19z"/>
<path d="M6960 1765 c13 -14 26 -25 28 -25 3 0 -5 11 -18 25 -13 14 -26 25
-28 25 -3 0 5 -11 18 -25z"/>
<path d="M6308 1763 c7 -3 16 -2 19 1 4 3 -2 6 -13 5 -11 0 -14 -3 -6 -6z"/>
<path d="M9218 1753 c6 -2 18 -2 25 0 6 3 1 5 -13 5 -14 0 -19 -2 -12 -5z"/>
<path d="M6249 1723 c-13 -16 -12 -17 4 -4 9 7 17 15 17 17 0 8 -8 3 -21 -13z"/>
<path d="M6830 1665 c19 -19 36 -35 39 -35 3 0 -10 16 -29 35 -19 19 -36 35
-39 35 -3 0 10 -16 29 -35z"/>
<path d="M6750 1686 c0 -2 8 -10 18 -17 15 -13 16 -12 3 4 -13 16 -21 21 -21
13z"/>
<path d="M7465 1614 c-171 -19 -227 -28 -340 -57 -55 -13 -117 -28 -139 -32
-21 -3 -46 -11 -55 -16 -9 -5 -72 -27 -141 -50 -147 -48 -449 -164 -570 -219
-67 -30 -88 -36 -99 -27 -12 9 -13 9 -7 -1 4 -7 0 -15 -11 -19 -10 -4 -20 -9
-23 -13 -6 -7 -388 -179 -545 -245 -262 -110 -546 -209 -748 -261 -316 -80
-539 -93 -947 -54 -231 22 -242 21 -253 -20 -12 -46 6 -52 264 -76 268 -25
427 -29 564 -14 410 46 817 179 1513 494 116 53 216 96 221 96 5 0 40 15 78
34 37 19 86 41 108 49 22 8 87 35 145 60 58 24 142 56 185 71 44 15 94 33 110
40 38 17 226 73 308 93 192 45 243 54 354 63 177 14 257 13 453 -4 202 -18
289 -31 304 -46 32 -32 78 12 69 68 -5 28 -9 32 -37 32 -18 0 -36 4 -42 9 -5
5 -46 12 -92 15 -46 4 -103 11 -127 16 -46 10 -298 31 -350 29 -16 -1 -84 -8
-150 -15z"/>
<path d="M6298 1573 c6 -2 18 -2 25 0 6 3 1 5 -13 5 -14 0 -19 -2 -12 -5z"/>
<path d="M8889 1563 c-13 -16 -12 -17 4 -4 16 13 21 21 13 21 -2 0 -10 -8 -17
-17z"/>
<path d="M7688 1473 c23 -2 59 -2 80 0 20 2 1 4 -43 4 -44 0 -61 -2 -37 -4z"/>
<path d="M6460 1457 c0 -2 15 -16 33 -33 l32 -29 -29 33 c-28 30 -36 37 -36
29z"/>
<path d="M7908 1323 c7 -3 16 -2 19 1 4 3 -2 6 -13 5 -11 0 -14 -3 -6 -6z"/>
<path d="M7628 1273 c7 -3 16 -2 19 1 4 3 -2 6 -13 5 -11 0 -14 -3 -6 -6z"/>
<path d="M7808 1273 c7 -3 16 -2 19 1 4 3 -2 6 -13 5 -11 0 -14 -3 -6 -6z"/>
<path d="M8568 1263 c7 -3 16 -2 19 1 4 3 -2 6 -13 5 -11 0 -14 -3 -6 -6z"/>
<path d="M9080 1225 c-24 -25 -42 -45 -39 -45 3 0 25 20 49 45 24 25 42 45 39
45 -3 0 -25 -20 -49 -45z"/>
<path d="M9359 1203 c-13 -16 -12 -17 4 -4 16 13 21 21 13 21 -2 0 -10 -8 -17
-17z"/>
<path d="M9284 1178 l-19 -23 23 19 c12 11 22 21 22 23 0 8 -8 2 -26 -19z"/>
<path d="M6365 1150 c10 -11 20 -20 23 -20 3 0 -3 9 -13 20 -10 11 -20 20 -23
20 -3 0 3 -9 13 -20z"/>
<path d="M6425 1150 c10 -11 20 -20 23 -20 3 0 -3 9 -13 20 -10 11 -20 20 -23
20 -3 0 3 -9 13 -20z"/>
<path d="M6570 1156 c0 -2 8 -10 18 -17 15 -13 16 -12 3 4 -13 16 -21 21 -21
13z"/>
<path d="M7465 1105 c-49 -8 -124 -21 -165 -30 -41 -9 -102 -20 -135 -26 -32
-6 -64 -14 -70 -18 -5 -4 -32 -14 -60 -21 -97 -24 -147 -42 -380 -131 -55 -21
-111 -41 -125 -45 -14 -3 -29 -10 -35 -14 -5 -4 -55 -27 -110 -50 -55 -23
-215 -94 -355 -158 -500 -225 -744 -321 -1035 -405 -364 -106 -616 -127 -1020
-87 -260 26 -269 26 -281 -2 -13 -29 -7 -55 13 -62 20 -8 248 -31 449 -46 488
-36 976 92 1849 487 259 117 574 253 586 253 5 0 51 18 103 40 51 22 101 40
110 40 9 0 34 8 56 19 79 38 455 139 545 146 39 3 93 11 120 16 124 26 307 18
675 -27 75 -9 78 -10 95 -24 12 -10 23 -11 43 -4 24 9 27 15 26 52 0 23 -4 45
-7 49 -7 6 -80 19 -167 29 -25 3 -101 11 -170 19 -151 18 -432 18 -555 0z"/>
<path d="M9009 1103 c-13 -16 -12 -17 4 -4 9 7 17 15 17 17 0 8 -8 3 -21 -13z"/>
<path d="M6210 1106 c0 -2 8 -10 18 -17 15 -13 16 -12 3 4 -13 16 -21 21 -21
13z"/>
<path d="M9229 1063 l-24 -28 28 24 c15 14 27 26 27 28 0 8 -8 1 -31 -24z"/>
<path d="M9129 1023 c-13 -16 -12 -17 4 -4 16 13 21 21 13 21 -2 0 -10 -8 -17
-17z"/>
<path d="M9179 1013 c-13 -16 -12 -17 4 -4 16 13 21 21 13 21 -2 0 -10 -8 -17
-17z"/>
<path d="M6285 980 c10 -11 20 -20 23 -20 3 0 -3 9 -13 20 -10 11 -20 20 -23
20 -3 0 3 -9 13 -20z"/>
<path d="M7911 974 c0 -11 3 -14 6 -6 3 7 2 16 -1 19 -3 4 -6 -2 -5 -13z"/>
<path d="M8408 973 c7 -3 16 -2 19 1 4 3 -2 6 -13 5 -11 0 -14 -3 -6 -6z"/>
<path d="M7521 944 c0 -11 3 -14 6 -6 3 7 2 16 -1 19 -3 4 -6 -2 -5 -13z"/>
<path d="M8220 956 c0 -2 8 -10 18 -17 15 -13 16 -12 3 4 -13 16 -21 21 -21
13z"/>
<path d="M7832 920 c0 -14 2 -19 5 -12 2 6 2 18 0 25 -3 6 -5 1 -5 -13z"/>
<path d="M7712 910 c0 -14 2 -19 5 -12 2 6 2 18 0 25 -3 6 -5 1 -5 -13z"/>
<path d="M7872 905 c0 -16 2 -22 5 -12 2 9 2 23 0 30 -3 6 -5 -1 -5 -18z"/>
<path d="M7751 904 c0 -11 3 -14 6 -6 3 7 2 16 -1 19 -3 4 -6 -2 -5 -13z"/>
<path d="M7548 663 c7 -3 16 -2 19 1 4 3 -2 6 -13 5 -11 0 -14 -3 -6 -6z"/>
<path d="M7878 663 c7 -3 16 -2 19 1 4 3 -2 6 -13 5 -11 0 -14 -3 -6 -6z"/>
<path d="M7468 633 c7 -3 16 -2 19 1 4 3 -2 6 -13 5 -11 0 -14 -3 -6 -6z"/>
<path d="M8048 503 c7 -3 16 -2 19 1 4 3 -2 6 -13 5 -11 0 -14 -3 -6 -6z"/>
<path d="M7538 483 c6 -2 18 -2 25 0 6 3 1 5 -13 5 -14 0 -19 -2 -12 -5z"/>
<path d="M7878 483 c6 -2 18 -2 25 0 6 3 1 5 -13 5 -14 0 -19 -2 -12 -5z"/>
<path d="M7458 453 c7 -3 16 -2 19 1 4 3 -2 6 -13 5 -11 0 -14 -3 -6 -6z"/>
</g>
</svg>
